<svg xmlns="http://www.w3.org/2000/svg" width="26" height="23.864" viewBox="0 0 26 23.864"><g transform="translate(0 -2.465)"><path d="M9.433,24.332h5.633a.433.433,0,1,0,0-.867H9.433a.433.433,0,1,0,0,.867Z" transform="translate(-5.1 -11.9)" fill="#fff"/><path d="M20.7,29.465H9.433a.433.433,0,1,0,0,.867H20.7a.433.433,0,0,0,0-.867Z" transform="translate(-5.1 -15.3)" fill="#fff"/><path d="M20.7,35.465H9.433a.433.433,0,1,0,0,.867H20.7a.433.433,0,1,0,0-.867Z" transform="translate(-5.1 -18.7)" fill="#fff"/><path d="M23.431,2.5,8.636,2.465a2.572,2.572,0,0,0-2.57,2.57v2.22l-3.5.007A2.572,2.572,0,0,0,0,9.832v9.161a2.572,2.572,0,0,0,2.57,2.569H5.2V25.9a.433.433,0,0,0,.754.292l4.205-4.626,7.2-.029a2.572,2.572,0,0,0,2.57-2.569v-.049l2.279,2.507a.433.433,0,0,0,.754-.292V16.8h.464A2.572,2.572,0,0,0,26,14.227V5.065A2.573,2.573,0,0,0,23.431,2.5ZM19.067,18.962a1.7,1.7,0,0,1-1.7,1.7l-7.4.03a.434.434,0,0,0-.319.142L6.067,24.775V21.129a.433.433,0,0,0-.433-.433H2.57a1.7,1.7,0,0,1-1.7-1.7V9.832a1.705,1.705,0,0,1,1.7-1.7L6.5,8.12h0L17.364,8.1a1.7,1.7,0,0,1,1.7,1.7v9.162Zm6.067-4.736a1.7,1.7,0,0,1-1.7,1.7h-.9a.433.433,0,0,0-.433.433v3.646l-2.167-2.383V9.8a2.573,2.573,0,0,0-2.571-2.57L6.933,7.253V5.034a1.7,1.7,0,0,1,1.7-1.7l14.794.03h0a1.7,1.7,0,0,1,1.7,1.7v9.162Z" transform="translate(0 0)" fill="#fff"/></g></svg>