<svg xmlns="http://www.w3.org/2000/svg" width="69.818" height="64" viewBox="0 0 69.818 64"><g transform="translate(0 -20.48)"><g transform="translate(0 20.48)"><path d="M66.909,69.935V26.3H49.4a20.956,20.956,0,0,0-28.983,0H2.909V69.935H0V77.81l6.67,6.67H63.148l6.67-6.67V69.935ZM5.818,29.207H17.875A20.92,20.92,0,0,0,13.85,41.54v.588a7.993,7.993,0,0,0,4.332,14.716h2.182v-16H18.182a8,8,0,0,0-1.394.13,18.13,18.13,0,0,1,36.243,0,7.989,7.989,0,0,0-1.395-.13H49.455v16h2.182a7.963,7.963,0,0,0,2.182-.31v4.674H43.368a4.356,4.356,0,0,0-4.1-2.909H34.909a4.364,4.364,0,1,0,0,8.727h4.364a4.356,4.356,0,0,0,4.1-2.909H56.727V55.01a7.985,7.985,0,0,0-.759-12.881V41.54a20.92,20.92,0,0,0-4.025-12.332H64V69.935H5.818ZM17.455,43.8v10.08a5.092,5.092,0,0,1,0-10.08Zm39.273,5.04a5.1,5.1,0,0,1-4.364,5.04V43.8A5.1,5.1,0,0,1,56.727,48.844Zm-16,13.818a1.456,1.456,0,0,1-1.455,1.455H34.909a1.455,1.455,0,1,1,0-2.909h4.364A1.456,1.456,0,0,1,40.727,62.662ZM66.909,76.6l-4.966,4.966H7.875L2.909,76.6V72.844h64Z" transform="translate(0 -20.48)" fill="#222e3b"/></g><g transform="translate(33.455 75.753)"><rect width="2.909" height="2.909" fill="#222e3b"/></g><g transform="translate(27.636 75.753)"><rect width="2.909" height="2.909" fill="#222e3b"/></g><g transform="translate(39.273 75.753)"><rect width="2.909" height="2.909" fill="#222e3b"/></g><path d="M21.671,26.881c-.473-1.245-.929-2.448-1.389-3.653s-.916-2.365-1.356-3.556c-.133-.359-.332-.622-.724-.622s-.6.263-.736.622q-2.581,6.5-5.183,13A2.678,2.678,0,0,1,9.039,34.3c-.207-.058-.274-.108-.182-.336q3.073-7.676,6.129-15.352a3.408,3.408,0,0,1,6.45.116q2.888,7.578,5.785,15.153c.16.415.153.434-.278.514a2.672,2.672,0,0,1-3.029-1.66c-.375-.946-.732-1.9-1.082-2.853a.415.415,0,0,0-.464-.319c-1,.021-2,.017-3,0a2.7,2.7,0,0,1-2.6-2.3c-.037-.274-.01-.394.33-.394C18.6,26.9,20.109,26.881,21.671,26.881Z" transform="translate(17.183 18.032)" fill="#222e3b"/></g></svg>