<svg xmlns="http://www.w3.org/2000/svg" width="69" height="47.438" viewBox="0 0 69 47.438"><path d="M0,6v4.313H40.969V42.656H27.694a8.544,8.544,0,0,0-16.576,0H8.625V31.875H4.313V46.969h6.806a8.544,8.544,0,0,0,16.576,0H45.618a8.544,8.544,0,0,0,16.576,0H69V29.382l-.135-.337L64.553,16.107l-.472-1.482h-18.8V6Zm2.156,8.625v4.313H21.563V14.625Zm43.125,4.313h15.7l3.706,11.051V42.656H62.194a8.544,8.544,0,0,0-16.576,0h-.337ZM4.313,23.25v4.313H17.25V23.25ZM19.406,40.5a4.313,4.313,0,1,1-4.312,4.313A4.278,4.278,0,0,1,19.406,40.5Zm34.5,0a4.313,4.313,0,1,1-4.312,4.313A4.278,4.278,0,0,1,53.906,40.5Z" transform="translate(0 -6)"/></svg>