<svg xmlns="http://www.w3.org/2000/svg" width="31.96" height="40" viewBox="0 0 31.96 40">
    <g id="shopping-bag-svgrepo-com" transform="translate(-54.5 -16)">
        <g id="Grupo_1" data-name="Grupo 1" transform="translate(54.5 16)">
            <path id="Caminho_23" data-name="Caminho 23" d="M80.46,34.668l-2.3-25.941a.986.986,0,0,0-.994-.9H72.313a7.833,7.833,0,0,0-15.665,0H51.8a1,1,0,0,0-.994.9L48.5,34.668v.091c0,2.89,2.658,5.241,5.92,5.241H74.54c3.262,0,5.92-2.351,5.92-5.241ZM64.488,1.987a5.854,5.854,0,0,1,5.846,5.837h-11.7A5.861,5.861,0,0,1,64.488,1.987ZM74.54,38H54.42c-2.153,0-3.908-1.432-3.933-3.213l2.219-24.98h3.941V13.3a.994.994,0,0,0,1.987,0V9.812H70.326V13.3a.994.994,0,1,0,1.987,0V9.812h3.941L78.473,34.8C78.448,36.572,76.693,38,74.54,38Z" transform="translate(-48.5)" fill="#fff"/>
            <path id="Caminho_24" data-name="Caminho 24" d="M175.656,211.512c-.315-.828-.621-1.631-.927-2.434-.3-.787-.613-1.573-.9-2.368-.091-.24-.224-.414-.48-.414s-.4.174-.489.406c-1.151,2.89-2.294,5.771-3.453,8.652a1.788,1.788,0,0,1-2.161,1.085c-.141-.041-.182-.075-.124-.224q2.049-5.1,4.082-10.217a2.271,2.271,0,0,1,4.3.075c1.275,3.362,2.567,6.723,3.85,10.093.108.281.1.29-.182.339a1.782,1.782,0,0,1-2.02-1.1c-.248-.629-.489-1.267-.72-1.9a.269.269,0,0,0-.306-.215c-.662.017-1.333.008-2,0a1.8,1.8,0,0,1-1.73-1.54c-.025-.182-.008-.265.224-.257C173.611,211.52,174.612,211.512,175.656,211.512Z" transform="translate(-157.274 -187.567)" fill="#fff"/>
        </g>
    </g>
</svg>
