<svg id="logo" xmlns="http://www.w3.org/2000/svg" width="36.268" height="24" viewBox="0 0 36.268 24">
    <g id="svg1925">
        <path id="path2045" d="M13.535,7.162V4.993q.315-.022.64-.033c5.927-.186,9.817,5.1,9.817,5.1s-4.2,5.835-8.706,5.835a5.473,5.473,0,0,1-1.753-.28V9.036c2.308.279,2.772,1.3,4.16,3.611l3.09-2.6a8.172,8.172,0,0,0-6.051-2.955,10.975,10.975,0,0,0-1.2.074m0-7.165V3.239c.213-.018.426-.031.64-.038,8.246-.277,13.617,6.761,13.617,6.761s-6.172,7.5-12.6,7.5a9.474,9.474,0,0,1-1.658-.148v2a10.943,10.943,0,0,0,1.382.089c5.981,0,10.307-3.055,14.5-6.67.694.557,3.537,1.909,4.123,2.5-3.983,3.336-13.268,6.023-18.527,6.023-.507,0-.995-.03-1.473-.074V24H36.268V0Zm0,15.61v1.708C8,16.333,6.466,10.581,6.466,10.581a11.962,11.962,0,0,1,7.069-3.42V9.036h-.009C11.211,8.758,9.4,10.921,9.4,10.921s1.012,3.642,4.133,4.689M3.705,10.332a13.706,13.706,0,0,1,9.829-5.339V3.239C6.28,3.82,0,9.962,0,9.962s3.557,10.28,13.535,11.225V19.321c-7.322-.921-9.829-8.988-9.829-8.988" fill="#77b900"/>
    </g>
</svg>