<svg xmlns="http://www.w3.org/2000/svg" width="163.667" height="72" viewBox="0 0 163.667 72">
    <g id="logo-avell-branca-high-performance" transform="translate(-3.77 -2.95)">
        <g id="high-performance" transform="translate(3.77 67.663)">
            <path id="Caminho_1" data-name="Caminho 1" d="M78.28,135.16v7H77.186v-3.149H73.838v3.14H72.72V135.16h1.118V138.1H77.2V135.16Z" transform="translate(-38.915 -135.016)" fill="#fff"/>
            <path id="Caminho_2" data-name="Caminho 2" d="M88.084,142.155H87v-7h1.1Z" transform="translate(-46.194 -135.016)" fill="#fff"/>
            <path id="Caminho_3" data-name="Caminho 3" d="M96.942,138.658V141.6a5.351,5.351,0,0,1-2.451.569q-3.241,0-3.241-3.6,0-3.679,3.211-3.674a5.307,5.307,0,0,1,2.27.491l-.172.863a5.391,5.391,0,0,0-1.917-.383c-1.539,0-2.25.908-2.25,2.742s.7,2.625,2.241,2.625a3.523,3.523,0,0,0,1.231-.206v-2.345Z" transform="translate(-48.36 -134.883)" fill="#fff"/>
            <path id="Caminho_4" data-name="Caminho 4" d="M110.945,135.16v7h-1.093v-3.149h-3.358v3.14h-1.1V135.16h1.1V138.1h3.358V135.16Z" transform="translate(-55.567 -135.016)" fill="#fff"/>
            <path id="Caminho_5" data-name="Caminho 5" d="M124,135.16h2.7c1.726,0,2.584.751,2.584,2.237s-.883,2.217-2.584,2.217H125.1v2.541H124Zm1.1,3.547h1.471c1.059,0,1.584-.442,1.584-1.329s-.525-1.3-1.584-1.3H125.1Z" transform="translate(-65.053 -135.016)" fill="#fff"/>
            <path id="Caminho_6" data-name="Caminho 6" d="M137.383,136.063v2.011h3.432v.932h-3.432v2.247h4.035v.912H136.28V135.16h5.138v.9Z" transform="translate(-71.312 -135.016)" fill="#fff"/>
            <path id="Caminho_7" data-name="Caminho 7" d="M151.417,139.614h-1.564v2.541h-1.1v-7h2.883c1.711,0,2.569.751,2.569,2.237a1.962,1.962,0,0,1-1.628,2.124l1.755,2.634h-1.294Zm-1.564-.908h1.628c1.059,0,1.584-.442,1.584-1.329s-.525-1.3-1.584-1.3h-1.628Z" transform="translate(-77.669 -135.016)" fill="#fff"/>
            <path id="Caminho_8" data-name="Caminho 8" d="M163.193,136.063v2.173h3.349v.922h-3.349v2.988h-1.1V135.16h4.967v.9Z" transform="translate(-84.468 -135.016)" fill="#fff"/>
            <path id="Caminho_9" data-name="Caminho 9" d="M178.062,135.633a2.135,2.135,0,0,1,.49.824,5.134,5.134,0,0,1,.309,2.011q0,3.679-3.123,3.674a3.063,3.063,0,0,1-2.216-.76,2.58,2.58,0,0,1-.525-.824,5.045,5.045,0,0,1-.314-2.011q0-3.679,3.148-3.674A3.063,3.063,0,0,1,178.062,135.633Zm-2.26,5.558c1.338,0,1.961-.824,1.961-2.806,0-1.8-.559-2.561-1.961-2.561s-1.961.8-1.961,2.762C173.846,140.431,174.4,141.191,175.8,141.191Z" transform="translate(-89.865 -134.866)" fill="#fff"/>
            <path id="Caminho_10" data-name="Caminho 10" d="M189.993,139.614h-1.539v2.541h-1.1v-7h2.883c1.711,0,2.569.751,2.569,2.237a1.962,1.962,0,0,1-1.628,2.124l1.755,2.634h-1.294Zm-1.539-.908h1.628c1.059,0,1.584-.442,1.584-1.329s-.525-1.3-1.584-1.3h-1.628Z" transform="translate(-97.344 -135.016)" fill="#fff"/>
            <path id="Caminho_11" data-name="Caminho 11" d="M207.2,142.155l-.789-5.745-1.672,5.745h-1.314l-1.672-5.745-.794,5.745H199.84l1.059-7h1.471l1.745,5.74,1.736-5.74h1.471l1.049,7Z" transform="translate(-103.71 -135.016)" fill="#fff"/>
            <path id="Caminho_12" data-name="Caminho 12" d="M222.686,140.556h-3.3l-.564,1.6H217.69l2.6-7h1.476l2.613,7h-1.133Zm-.324-.908-1.329-3.664-1.314,3.664Z" transform="translate(-112.808 -135.016)" fill="#fff"/>
            <path id="Caminho_13" data-name="Caminho 13" d="M238.5,135.16v7H237.2l-3.368-5.6v5.6H232.7v-7h1.329l3.373,5.583V135.16Z" transform="translate(-120.459 -135.016)" fill="#fff"/>
            <path id="Caminho_14" data-name="Caminho 14" d="M251.85,136.225a5.038,5.038,0,0,0-1.839-.383c-1.535,0-2.324.942-2.324,2.742s.77,2.624,2.314,2.624a4.792,4.792,0,0,0,1.848-.4l.172.868a5.528,5.528,0,0,1-2.27.491c-2.108,0-3.211-1.231-3.211-3.6s1.1-3.674,3.246-3.674a5.341,5.341,0,0,1,2.235.49Z" transform="translate(-127.514 -134.883)" fill="#fff"/>
            <path id="Caminho_15" data-name="Caminho 15" d="M260.7,136.063v2.011h3.432v.932H260.7v2.247h4.035v.912H259.6V135.16h5.138v.9Z" transform="translate(-134.171 -135.016)" fill="#fff"/>
            <path id="Caminho_16" data-name="Caminho 16" d="M3.77,141.4l28.618-1.712v3.434L3.77,141.4" transform="translate(-3.77 -137.324)" fill="#df0a14"/>
            <path id="Caminho_17" data-name="Caminho 17" d="M308.643,141.392,280.8,143.1V139.67l27.843,1.712" transform="translate(-144.977 -137.313)" fill="#df0a14"/>
        </g>
        <g id="avell" transform="translate(6.244 2.95)">
            <path id="Caminho_18" data-name="Caminho 18" d="M293.466,2.995a6.946,6.946,0,0,1,3.432,1.81,6.3,6.3,0,0,1,1.785,4.489V31.369a14.462,14.462,0,0,0,9.374,13.814,7.519,7.519,0,0,1,4.873,5.744c.289,1.383.289,1.383-1.1,1.32a20.662,20.662,0,0,1-19.209-18.224c-.088-.9-.127-1.786-.127-2.683V2.99Z" transform="translate(-153.41 -2.97)" fill="#fff"/>
            <path id="Caminho_19" data-name="Caminho 19" d="M255.758,2.975c.226.294.588.177.878.275a6.26,6.26,0,0,1,4.28,6.255V31.511a14.417,14.417,0,0,0,9.291,13.652,7.539,7.539,0,0,1,5.04,6.377c.069.491.093.751-.618.716A20.659,20.659,0,0,1,255.018,35.2a23.385,23.385,0,0,1-.319-4.219V4c0-.353-.039-.7-.059-1.05Z" transform="translate(-134.117 -2.95)" fill="#fff"/>
            <path id="Caminho_20" data-name="Caminho 20" d="M189.478,41.78H178.152a6.375,6.375,0,0,1-6.5-5.617c-.093-.6,0-.775.667-.775h22.063c.981,0,.981,0,.726-.922a14.744,14.744,0,1,0-15.478,18.774,14.41,14.41,0,0,0,11.855-4.415,6.371,6.371,0,0,1,7.7-1.177c.456.255.608.427.294.981-3.922,6.76-9.762,10.567-17.606,10.984a21.1,21.1,0,1,1,19.969-23.9,23.389,23.389,0,0,1,.039,5.524c-.059.549-.319.574-.745.574C197.244,41.775,193.361,41.78,189.478,41.78Z" transform="translate(-85.762 -10.33)" fill="#fff"/>
            <path id="Caminho_21" data-name="Caminho 21" d="M39.211,41.241c-1.118-2.943-2.2-5.789-3.285-8.639s-2.167-5.592-3.206-8.408c-.314-.849-.784-1.472-1.711-1.472s-1.412.623-1.741,1.472q-6.1,15.374-12.257,30.734a6.334,6.334,0,0,1-7.668,3.851c-.49-.137-.647-.255-.431-.795q7.266-18.151,14.493-36.3a8.058,8.058,0,0,1,15.253.275q6.83,17.92,13.679,35.831c.378.981.363,1.025-.657,1.217a6.319,6.319,0,0,1-7.163-3.924c-.887-2.237-1.731-4.489-2.559-6.745a.981.981,0,0,0-1.1-.755c-2.358.049-4.721.039-7.085,0a6.375,6.375,0,0,1-6.148-5.445c-.088-.648-.025-.932.78-.932C31.95,41.275,35.519,41.241,39.211,41.241Z" transform="translate(-8.817 -9.781)" fill="#fff"/>
            <path id="Caminho_22" data-name="Caminho 22" d="M98.1,59.139a8.089,8.089,0,0,1-7.894-5.19Q84.968,40.841,79.752,27.733c-1.348-3.39-2.7-6.784-4.074-10.16-.206-.491-.142-.672.4-.829a6.309,6.309,0,0,1,7.614,3.694q5.06,12.607,10.07,25.235c.76,1.908,1.539,3.807,2.27,5.73A1.883,1.883,0,0,0,97.735,52.8c.735.044,1.343-.491,1.691-1.4q5.815-15.266,11.654-30.542a6.4,6.4,0,0,1,7.354-4.337c1.039.186,1.039.186.672,1.153q-6.923,18.112-13.831,36.223A7.88,7.88,0,0,1,98.1,59.139Z" transform="translate(-42.841 -9.803)" fill="#fff"/>
        </g>
    </g>
</svg>
