<svg xmlns="http://www.w3.org/2000/svg" width="77.244" height="83.456" viewBox="0 0 77.244 83.456"><path d="M69.957,51.964a15.718,15.718,0,0,0-12.114,5.7L39.04,46.988a15.711,15.711,0,0,0,0-10.517l18.8-10.679A15.727,15.727,0,1,0,55.118,21l-18.8,10.679a15.745,15.745,0,1,0,0,20.093l18.8,10.676A15.742,15.742,0,1,0,69.957,51.964Zm0-46.455A10.237,10.237,0,1,1,59.722,15.744,10.246,10.246,0,0,1,69.957,5.51ZM24.2,51.964A10.235,10.235,0,1,1,34.437,41.729,10.248,10.248,0,0,1,24.2,51.964ZM69.957,77.947A10.237,10.237,0,1,1,80.191,67.712,10.247,10.247,0,0,1,69.957,77.947Z" transform="translate(-8.456)"/></svg>